<?xml version="1.0" standalone="no"?><!DOCTYPE svg PUBLIC "-//W3C//DTD SVG 1.1//EN" "http://www.w3.org/Graphics/SVG/1.1/DTD/svg11.dtd"><svg t="1581566150278" class="icon" viewBox="0 0 1024 1024" version="1.1" xmlns="http://www.w3.org/2000/svg" p-id="1771" xmlns:xlink="http://www.w3.org/1999/xlink" width="200" height="200"><defs><style type="text/css"></style></defs><path d="M416 128H256a128.128 128.128 0 0 0-128 128v160a32 32 0 0 0 32 32h256a32 32 0 0 0 32-32v-256a32 32 0 0 0-32-32zM384 384H192V256a64.064 64.064 0 0 1 64-64h128z m160 64h256a32 32 0 0 0 32-32V256a128.128 128.128 0 0 0-128-128H544a32 32 0 0 0-32 32v256a32 32 0 0 0 32 32zM576 192h128a64.064 64.064 0 0 1 64 64v128H576zM416 512h-256a32 32 0 0 0-32 32V704a128.128 128.128 0 0 0 128 128h160a32 32 0 0 0 32-32v-256a32 32 0 0 0-32-32zM384 768H256a64.064 64.064 0 0 1-64-64V576h192z m502.656 73.344l-81.28-81.28a160.448 160.448 0 1 0-45.248 45.312l81.28 81.28a32 32 0 0 0 45.184-45.248zM576 672a96 96 0 1 1 96 96A96.128 96.128 0 0 1 576 672z" fill="#111111" p-id="1772"></path></svg>