<?xml version="1.0" standalone="no"?><!DOCTYPE svg PUBLIC "-//W3C//DTD SVG 1.1//EN" "http://www.w3.org/Graphics/SVG/1.1/DTD/svg11.dtd"><svg t="1581566146756" class="icon" viewBox="0 0 1024 1024" version="1.1" xmlns="http://www.w3.org/2000/svg" p-id="1636" xmlns:xlink="http://www.w3.org/1999/xlink" width="200" height="200"><defs><style type="text/css"></style></defs><path d="M448 160v256a32 32 0 0 1-32 32h-256a32 32 0 0 1-32-32V256a128.128 128.128 0 0 1 128-128h160a32 32 0 0 1 32 32zM544 448h256a32 32 0 0 0 32-32V256a128.128 128.128 0 0 0-128-128H544a32 32 0 0 0-32 32v256a32 32 0 0 0 32 32z m-128 64h-256a32 32 0 0 0-32 32V704a128.128 128.128 0 0 0 128 128h160a32 32 0 0 0 32-32v-256a32 32 0 0 0-32-32z m470.656 374.656a32 32 0 0 1-45.248 0l-81.28-81.28a160.448 160.448 0 1 1 45.248-45.248l81.28 81.28a32 32 0 0 1 0 45.248zM672 768A96 96 0 1 0 576 672a96.128 96.128 0 0 0 96 96z" fill="#111111" p-id="1637"></path></svg>