<?xml version="1.0" standalone="no"?><!DOCTYPE svg PUBLIC "-//W3C//DTD SVG 1.1//EN" "http://www.w3.org/Graphics/SVG/1.1/DTD/svg11.dtd"><svg t="1581566034771" class="icon" viewBox="0 0 1024 1024" version="1.1" xmlns="http://www.w3.org/2000/svg" p-id="1466" xmlns:xlink="http://www.w3.org/1999/xlink" width="200" height="200"><defs><style type="text/css"></style></defs><path d="M782.504 945.25 241.496 945.25c-67.796 0-122.956-56.242-122.956-125.374L118.54 594.21l-12.298 0c-47.462 0-86.068-39.366-86.068-87.758 0-24.144 9.516-46.686 26.83-63.488L434.81 98.898c19.596-20.082 47.338-31.792 76.844-31.792 29.512 0 57.252 11.712 78.106 32.972l388.22 343.914c17.188 17.926 25.846 39.616 25.846 62.458 0 48.368-38.612 87.758-86.072 87.758l-12.292 0 0 225.666C905.46 889.008 850.302 945.25 782.504 945.25L782.504 945.25z" p-id="1467"></path></svg>