<?xml version="1.0" standalone="no"?><!DOCTYPE svg PUBLIC "-//W3C//DTD SVG 1.1//EN" "http://www.w3.org/Graphics/SVG/1.1/DTD/svg11.dtd"><svg t="1581566240562" class="icon" viewBox="0 0 1024 1024" version="1.1" xmlns="http://www.w3.org/2000/svg" p-id="3938" xmlns:xlink="http://www.w3.org/1999/xlink" width="200" height="200"><defs><style type="text/css"></style></defs><path d="M512 0C229.226667 0 0 229.226667 0 512s229.226667 512 512 512 512-229.226667 512-512S794.773333 0 512 0zM280.405333 869.824l35.114667-171.989333 0.490667-2.837334a86.101333 86.101333 0 0 1 85.034666-74.325333h25.493334c26.133333 13.461333 54.997333 19.328 85.461333 19.328 30.464 0 59.328-5.866667 85.461333-19.328h29.312a86.08 86.08 0 0 1 85.034667 74.325333l35.221333 172.757334A424.256 424.256 0 0 1 512 938.666667a423.744 423.744 0 0 1-231.594667-68.842667zM512 554.666667c-63.893333 0-128-76.458667-128-149.333334 0-68.544 59.456-128 128-128s128 59.456 128 128c0 72.874667-64.106667 149.333333-128 149.333334z m309.290667 250.389333l-25.130667-122.986667c-9.365333-65.045333-55.253333-117.397333-114.986667-137.621333C706.496 506.453333 725.333333 451.52 725.333333 405.333333c0-115.776-97.557333-213.333333-213.333333-213.333333s-213.333333 97.557333-213.333333 213.333333c0 46.613333 19.114667 101.952 44.842666 140.16-58.176 20.949333-102.656 72.661333-111.850666 136.576l-25.834667 126.421334C131.392 731.648 85.333333 627.178667 85.333333 512 85.333333 276.736 276.736 85.333333 512 85.333333s426.666667 191.402667 426.666667 426.666667c0 113.493333-44.842667 216.533333-117.376 293.056z" p-id="3939"></path></svg>