<?xml version="1.0" standalone="no"?><!DOCTYPE svg PUBLIC "-//W3C//DTD SVG 1.1//EN" "http://www.w3.org/Graphics/SVG/1.1/DTD/svg11.dtd"><svg t="1581566326457" class="icon" viewBox="0 0 1024 1024" version="1.1" xmlns="http://www.w3.org/2000/svg" p-id="5311" xmlns:xlink="http://www.w3.org/1999/xlink" width="200" height="200"><defs><style type="text/css"></style></defs><path d="M250.187776 1003.216896h-27.162624c-2.43712-0.804864-4.831232-1.779712-7.313408-2.392064-40.159232-9.924608-69.421056-46.983168-68.870144-87.271424 0.585728-42.575872 28.768256-77.692928 70.049792-87.228416 4.92544-1.140736 9.895936-2.08896 14.690304-3.096576-17.250304-85.99552-34.408448-171.15136-51.406848-256.344064-29.732864-149.02272-59.392-298.059776-89.022464-447.102976-4.835328-24.33024-18.806784-39.573504-43.309056-44.775424-2.940928-0.62464-5.79584-1.734656-8.759296-2.148352C25.919488 71.02464 15.958016 64.786432 10.24 52.473856v-11.317248c3.661824-9.918464 10.528768-16.635904 20.373504-20.373504h11.3152c7.13728 2.14016 14.229504 4.44416 21.420032 6.393856 41.750528 11.323392 67.540992 37.894144 76.29824 80.365568 8.660992 42.006528 17.338368 84.021248 25.053184 126.208 2.113536 11.558912 6.395904 14.733312 18.204672 14.71488 248.211456-0.405504 496.427008-0.311296 744.64256-0.280576 6.027264 0 12.0832 0.086016 18.0736 0.671744 46.594048 4.54656 77.295616 47.681536 65.667072 93.200384-25.962496 101.668864-52.232192 203.259904-78.647296 304.81408-14.215168 54.644736-50.802688 82.403328-107.583488 82.403328-182.20032 0.008192-364.40064 0.004096-546.60096 0.004096h-14.39744c5.16096 25.372672 9.785344 49.711104 15.157248 73.89184 2.998272 13.492224 11.956224 20.140032 25.853952 20.82816 3.385344 0.167936 6.785024 0.04096 10.182656 0.04096 186.7264 0.0512 373.4528-0.02048 560.1792 0.251904 36.921344 0.0512 68.829184 22.888448 82.06336 57.055232 13.246464 34.195456 4.364288 71.79264-22.407168 97.488896-13.85472 13.295616-30.920704 19.5072-48.809984 24.379392H859.11552c-1.662976-0.724992-3.25632-1.724416-4.990976-2.14016-44.517376-10.631168-72.638464-47.804416-69.855232-93.616128 0.6656-10.96704 3.960832-21.784576 6.029312-32.58368h-471.77728c13.969408 33.792 10.838016 64.897024-10.55744 93.640704-14.45888 19.42528-35.08224 28.852224-57.776128 34.701312z" fill="" p-id="5312"></path></svg>