<?xml version="1.0" standalone="no"?><!DOCTYPE svg PUBLIC "-//W3C//DTD SVG 1.1//EN" "http://www.w3.org/Graphics/SVG/1.1/DTD/svg11.dtd"><svg t="1583742513586" class="icon" viewBox="0 0 1024 1024" version="1.1" xmlns="http://www.w3.org/2000/svg" p-id="4362" xmlns:xlink="http://www.w3.org/1999/xlink" width="64" height="64"><defs><style type="text/css"></style></defs><path d="M908.8 775.68H373.76l-153.6-460.8H81.92v-51.2h176.64l153.6 460.8h496.64z" fill="#333333" p-id="4363"></path><path d="M340.48 604.16l-5.12-51.2 547.84-35.84v-89.6H468.48v-51.2h465.92v189.44z" fill="#333333" p-id="4364"></path><path d="M488.96 803.84m-51.2 0a51.2 51.2 0 1 0 102.4 0 51.2 51.2 0 1 0-102.4 0Z" fill="#333333" p-id="4365"></path><path d="M791.04 803.84m-51.2 0a51.2 51.2 0 1 0 102.4 0 51.2 51.2 0 1 0-102.4 0Z" fill="#333333" p-id="4366"></path></svg>