<?xml version="1.0" standalone="no"?><!DOCTYPE svg PUBLIC "-//W3C//DTD SVG 1.1//EN" "http://www.w3.org/Graphics/SVG/1.1/DTD/svg11.dtd"><svg t="1583742522947" class="icon" viewBox="0 0 1024 1024" version="1.1" xmlns="http://www.w3.org/2000/svg" p-id="5131" xmlns:xlink="http://www.w3.org/1999/xlink" width="64" height="64"><defs><style type="text/css"></style></defs><path d="M814.933333 908.8H236.8c-108.8 0-198.4-89.6-198.4-198.4v-181.333333c0-17.066667 14.933333-32 32-32s32 14.933333 32 32v181.333333c0 74.666667 59.733333 134.4 134.4 134.4h578.133333c74.666667 0 134.4-59.733333 134.4-134.4V533.333333c0-17.066667 14.933333-32 32-32s32 14.933333 32 32v177.066667c0 108.8-89.6 198.4-198.4 198.4z" fill="#543E3E" p-id="5132"></path><path d="M552.533333 637.866667c-17.066667 0-32-14.933333-32-32V81.066667c0-17.066667 14.933333-32 32-32s32 14.933333 32 32v524.8c0 17.066667-14.933333 32-32 32z" fill="#543E3E" p-id="5133"></path><path d="M552.533333 637.866667c-8.533333 0-17.066667-2.133333-23.466666-8.533334-12.8-12.8-12.8-32 0-44.8l262.4-262.4c12.8-12.8 32-12.8 44.8 0 12.8 12.8 12.8 32 0 44.8L573.866667 629.333333c-6.4 4.266667-14.933333 8.533333-21.333334 8.533334z" fill="#FFBB12" p-id="5134"></path><path d="M552.533333 637.866667c-8.533333 0-17.066667-2.133333-23.466666-8.533334l-130.133334-130.133333c-12.8-12.8-12.8-32 0-44.8 12.8-12.8 32-12.8 44.8 0l130.133334 130.133333c12.8 12.8 12.8 32 0 44.8-6.4 4.266667-14.933333 8.533333-21.333334 8.533334zM339.2 424.533333c-8.533333 0-17.066667-2.133333-23.466667-8.533333l-49.066666-49.066667c-12.8-12.8-12.8-32 0-44.8 12.8-12.8 32-12.8 44.8 0l49.066666 49.066667c12.8 12.8 12.8 32 0 44.8-4.266667 6.4-12.8 8.533333-21.333333 8.533333z" fill="#FFBB12" p-id="5135"></path></svg>