<?xml version="1.0" standalone="no"?><!DOCTYPE svg PUBLIC "-//W3C//DTD SVG 1.1//EN" "http://www.w3.org/Graphics/SVG/1.1/DTD/svg11.dtd"><svg t="1583742453598" class="icon" viewBox="0 0 1234 1024" version="1.1" xmlns="http://www.w3.org/2000/svg" p-id="2335" xmlns:xlink="http://www.w3.org/1999/xlink" width="77.125" height="64"><defs><style type="text/css"></style></defs><path d="M61.768275 1023.996688A59.421421 59.421421 0 0 1 38.973828 1019.710553a61.759313 61.759313 0 0 1-38.964866-58.4473V101.698301A101.698301 101.698301 0 0 1 101.707263 0h1031.010364a101.698301 101.698301 0 0 1 101.698301 101.698301v635.322146a101.698301 101.698301 0 0 1-101.698301 101.698301H239.64289c-9.156744 11.104987-23.573744 30.002947-36.042501 45.978543-30.782244 38.964866-68.967813 89.03472-98.970761 120.791085a58.4473 58.4473 0 0 1-42.861353 18.508312zM101.707263 77.929733A24.158217 24.158217 0 0 0 77.938695 101.698301v816.119126C99.174547 892.29544 122.163818 862.487317 142.0359 837.744627c53.187043-68.967813 58.4473-76.176314 81.436571-76.176314h909.245156a24.158217 24.158217 0 0 0 23.768569-23.768568V101.698301A24.158217 24.158217 0 0 0 1132.717627 77.929733z" fill="#3D3D3D" p-id="2336"></path><path d="M207.6917 164.042087l824.691396 0 0 504.010547-824.691396 0 0-504.010547Z" fill="#F683A2" p-id="2337"></path><path d="M906.331754 279.962565H328.093137a38.964866 38.964866 0 0 1 0-77.929733h578.238617a38.964866 38.964866 0 0 1 0 77.929733zM906.331754 462.707788H328.093137a38.964866 38.964866 0 0 1 0-77.929733h578.238617a38.964866 38.964866 0 1 1 0 77.929733zM906.331754 625.775754H328.093137a38.964866 38.964866 0 0 1 0-77.929733h578.238617a38.964866 38.964866 0 0 1 0 77.929733z" fill="#3D3D3D" p-id="2338"></path></svg>